<svg width="40" height="40" viewBox="0 0 40 40" fill="none" xmlns="http://www.w3.org/2000/svg">
<path fill-rule="evenodd" clip-rule="evenodd" d="M5 20C5 11.7157 11.7157 5 20 5C28.2843 5 35 11.7157 35 20C35 28.2843 28.2843 35 20 35C11.7157 35 5 28.2843 5 20ZM20 6.875C12.7513 6.875 6.875 12.7513 6.875 20C6.875 27.2487 12.7513 33.125 20 33.125C27.2487 33.125 33.125 27.2487 33.125 20C33.125 12.7513 27.2487 6.875 20 6.875Z" fill="white"/>
<path fill-rule="evenodd" clip-rule="evenodd" d="M20 17.75C21.0585 17.75 21.9167 16.8919 21.9167 15.8333C21.9167 14.7748 21.0585 13.9167 20 13.9167C18.9415 13.9167 18.0833 14.7748 18.0833 15.8333C18.0833 16.8919 18.9415 17.75 20 17.75ZM20 19.1667C21.8409 19.1667 23.3333 17.6743 23.3333 15.8333C23.3333 13.9924 21.8409 12.5 20 12.5C18.1591 12.5 16.6667 13.9924 16.6667 15.8333C16.6667 17.6743 18.1591 19.1667 20 19.1667Z" fill="white"/>
<path fill-rule="evenodd" clip-rule="evenodd" d="M15.8904 23.2262C15.0679 23.6602 14.9583 24.0731 14.9583 24.1667V25.0417H25.0417V24.1667C25.0417 24.0416 24.9396 23.6372 24.1731 23.2222C23.4159 22.8123 22.1023 22.4583 20 22.4583C17.9991 22.4583 16.679 22.81 15.8904 23.2262ZM15.1513 21.8259C16.2377 21.2525 17.8343 20.875 20 20.875C22.2533 20.875 23.8563 21.2502 24.9269 21.8299C25.9882 22.4045 26.625 23.2501 26.625 24.1667V25.75C26.625 26.2332 26.2332 26.625 25.75 26.625H14.25C13.7668 26.625 13.375 26.2332 13.375 25.75V24.1667C13.375 23.2186 14.0987 22.3814 15.1513 21.8259Z" fill="white"/>
</svg>
